<svg width="70" height="69" viewBox="0 0 70 69" fill="none" xmlns="http://www.w3.org/2000/svg">
<path d="M35.5312 27.1263C28.7932 27.2684 24.9528 23.5935 23.8748 21.7382C16.691 14.6681 10.3911 23.2723 12.3348 29.6878C14.2785 36.1034 15.1437 38.9137 22.1181 46.2085C27.6976 52.0443 32.5656 55.43 34.3022 56.3935C46.3207 61.8204 55.6336 55.7731 58.7877 52.071C64.2424 43.194 57.198 33.66 52.994 30.0027C46.4476 24.7055 38.6245 25.878 35.5312 27.1263Z" stroke="#AAA6A6" stroke-width="5"/>
<path d="M46.5628 38.2546C46.9799 39.7506 45.6071 41.1304 44.109 40.721L22.3969 34.7872C20.9183 34.383 20.4252 32.534 21.5064 31.4473L37.1739 15.6996C38.2551 14.6129 40.1066 15.0965 40.5183 16.5731L46.5628 38.2546Z" stroke="#6C6C6C" stroke-width="4"/>
<path d="M26 24L30 26" stroke="#AAA6A6" stroke-width="5" stroke-linecap="round"/>
</svg>
