<svg width="13" height="17" viewBox="0 0 13 17" fill="none" xmlns="http://www.w3.org/2000/svg">
<path d="M6.11523 8.075C5.54691 8.075 5.00187 7.85112 4.60001 7.4526C4.19814 7.05409 3.97238 6.51359 3.97238 5.95C3.97238 5.38642 4.19814 4.84591 4.60001 4.4474C5.00187 4.04888 5.54691 3.825 6.11523 3.825C6.68356 3.825 7.2286 4.04888 7.63046 4.4474C8.03233 4.84591 8.25809 5.38642 8.25809 5.95C8.25809 6.22906 8.20267 6.50539 8.09498 6.7632C7.98729 7.02102 7.82945 7.25528 7.63046 7.4526C7.43148 7.64993 7.19525 7.80645 6.93527 7.91324C6.67529 8.02004 6.39664 8.075 6.11523 8.075ZM6.11523 0C4.52394 0 2.99781 0.626873 1.87259 1.74271C0.747375 2.85856 0.115234 4.37196 0.115234 5.95C0.115234 10.4125 6.11523 17 6.11523 17C6.11523 17 12.1152 10.4125 12.1152 5.95C12.1152 4.37196 11.4831 2.85856 10.3579 1.74271C9.23266 0.626873 7.70653 0 6.11523 0Z" fill="#414141"/>
</svg>
