<svg width="21" height="16" viewBox="0 0 21 16" fill="none" xmlns="http://www.w3.org/2000/svg">
<path d="M18.1152 14H2.11523V4H18.1152V14ZM18.1152 2H10.1152L8.11523 0H2.11523C1.00523 0 0.115234 0.89 0.115234 2V14C0.115234 14.5304 0.325948 15.0391 0.701021 15.4142C1.07609 15.7893 1.5848 16 2.11523 16H18.1152C18.6457 16 19.1544 15.7893 19.5294 15.4142C19.9045 15.0391 20.1152 14.5304 20.1152 14V4C20.1152 2.89 19.2152 2 18.1152 2ZM17.1152 8V7H15.6152L16.1152 5H15.1152L14.6152 7H12.6152L13.1152 5H12.1152L11.6152 7H10.1152V8H11.3652L10.8652 10H9.11523V11H10.6152L10.1152 13H11.1152L11.6152 11H13.6152L13.1152 13H14.1152L14.6152 11H16.1152V10H14.8652L15.3652 8H17.1152ZM13.8652 10H11.8652L12.3652 8H14.3652L13.8652 10Z" fill="#414141"/>
</svg>
