<svg width="26" height="25" viewBox="0 0 26 25" fill="none" xmlns="http://www.w3.org/2000/svg">
<path d="M7.54 0H18.46C22.62 0 26 3.25 26 7.25V17.75C26 19.6728 25.2056 21.5169 23.7916 22.8765C22.3776 24.2362 20.4597 25 18.46 25H7.54C3.38 25 0 21.75 0 17.75V7.25C0 5.32718 0.794391 3.48311 2.20842 2.12348C3.62244 0.763837 5.54027 0 7.54 0ZM7.28 2.5C6.03879 2.5 4.84841 2.97411 3.97074 3.81802C3.09307 4.66193 2.6 5.80653 2.6 7V18C2.6 20.4875 4.693 22.5 7.28 22.5H18.72C19.9612 22.5 21.1516 22.0259 22.0293 21.182C22.9069 20.3381 23.4 19.1935 23.4 18V7C23.4 4.5125 21.307 2.5 18.72 2.5H7.28ZM19.825 4.375C20.256 4.375 20.6693 4.53962 20.974 4.83265C21.2788 5.12567 21.45 5.5231 21.45 5.9375C21.45 6.3519 21.2788 6.74933 20.974 7.04235C20.6693 7.33538 20.256 7.5 19.825 7.5C19.394 7.5 18.9807 7.33538 18.6759 7.04235C18.3712 6.74933 18.2 6.3519 18.2 5.9375C18.2 5.5231 18.3712 5.12567 18.6759 4.83265C18.9807 4.53962 19.394 4.375 19.825 4.375ZM13 6.25C14.7239 6.25 16.3772 6.90848 17.5962 8.08058C18.8152 9.25268 19.5 10.8424 19.5 12.5C19.5 14.1576 18.8152 15.7473 17.5962 16.9194C16.3772 18.0915 14.7239 18.75 13 18.75C11.2761 18.75 9.62279 18.0915 8.40381 16.9194C7.18482 15.7473 6.5 14.1576 6.5 12.5C6.5 10.8424 7.18482 9.25268 8.40381 8.08058C9.62279 6.90848 11.2761 6.25 13 6.25ZM13 8.75C11.9657 8.75 10.9737 9.14509 10.2423 9.84835C9.51089 10.5516 9.1 11.5054 9.1 12.5C9.1 13.4946 9.51089 14.4484 10.2423 15.1517C10.9737 15.8549 11.9657 16.25 13 16.25C14.0343 16.25 15.0263 15.8549 15.7577 15.1517C16.4891 14.4484 16.9 13.4946 16.9 12.5C16.9 11.5054 16.4891 10.5516 15.7577 9.84835C15.0263 9.14509 14.0343 8.75 13 8.75Z" fill="#444444"/>
</svg>
